# xmcd
#
# Track frame offsets:
#	150
#	29961
#	52704
#	71764
#	104640
#	126923
#	146514
#	173228
#	199861
#	218204
#	239276
#
# Disc length: 3427 seconds
#
# Revision: 1
# Processed by: cddbd v1.5.2PL0 Copyright (c) Steve Scherf et al.
# Submitted via: audiograbber 1.83.01
#
DISCID=ab0d610b
DTITLE=Mai Quoc Huy - Volume 06
DYEAR=2012
DGENRE=Pop
TTITLE0=Huong Lan and Mai Quoc Huy - Chuyen tinh Lan and Diep
TTITLE1=Mai Quoc Huy - Lien khuc Duyen phan be bang and Hai ban tay trang
TTITLE2=Giao Linh - Tinh yeu tra lai trang sao
TTITLE3=Thanh Tuyen - Lien khuc Noi buon hoa phuong and Tien biet
TTITLE4=Thanh Tuyen and Mai Quoc Huy - Dung noi xa nhau
TTITLE5=Phuong Dung - Ve dau mai toc nguoi thuong
TTITLE6=Phi Nhung and Mai Quoc Huy - Cho vua long em
TTITLE7=Mai Quoc Huy - Lien khuc Tuy ca and Xua di huyen thoai
TTITLE8=Mai Quoc Huy - Em gio than gai long dong
TTITLE9=Dam Vinh Hung - Doi em trong mo
TTITLE10=Dam Vinh Hung - Sao em no vo tinh
EXTD=
EXTT0=
EXTT1=
EXTT2=
EXTT3=
EXTT4=
EXTT5=
EXTT6=
EXTT7=
EXTT8=
EXTT9=
EXTT10=
PLAYORDER=
